<mxfile host="app.diagrams.net" modified="2021-10-29T22:18:32.506Z" agent="5.0 (Windows NT 10.0; Win64; x64) AppleWebKit/537.36 (KHTML, like Gecko) Chrome/95.0.4638.54 Safari/537.36" etag="rMJ4pCO649abColytiqa" version="15.6.2" type="github">
  <diagram id="PZhOmZodgy_nqVF8pZL5" name="Page-1">
    <mxGraphModel dx="1665" dy="259" grid="1" gridSize="10" guides="1" tooltips="1" connect="1" arrows="1" fold="1" page="1" pageScale="1" pageWidth="1169" pageHeight="827" math="0" shadow="0">
      <root>
        <mxCell id="0" />
        <mxCell id="1" parent="0" />
        <mxCell id="KWIYYOEdsQ_5LCBeowkV-2" value="Leche" style="rounded=1;whiteSpace=wrap;html=1;" vertex="1" parent="1">
          <mxGeometry x="240" y="30" width="120" height="60" as="geometry" />
        </mxCell>
        <mxCell id="KWIYYOEdsQ_5LCBeowkV-3" value="Agua" style="rounded=1;whiteSpace=wrap;html=1;" vertex="1" parent="1">
          <mxGeometry x="360" y="30" width="120" height="60" as="geometry" />
        </mxCell>
        <mxCell id="KWIYYOEdsQ_5LCBeowkV-4" value="CafÃ©" style="rounded=1;whiteSpace=wrap;html=1;" vertex="1" parent="1">
          <mxGeometry x="480" y="60" width="90" height="30" as="geometry" />
        </mxCell>
        <mxCell id="KWIYYOEdsQ_5LCBeowkV-5" value="" style="rounded=0;whiteSpace=wrap;html=1;" vertex="1" parent="1">
          <mxGeometry x="240" y="90" width="330" height="250" as="geometry" />
        </mxCell>
        <mxCell id="KWIYYOEdsQ_5LCBeowkV-7" value="" style="rounded=0;whiteSpace=wrap;html=1;" vertex="1" parent="1">
          <mxGeometry x="280" y="20" width="40" height="10" as="geometry" />
        </mxCell>
        <mxCell id="KWIYYOEdsQ_5LCBeowkV-8" value="" style="rounded=0;whiteSpace=wrap;html=1;" vertex="1" parent="1">
          <mxGeometry x="400" y="20" width="40" height="10" as="geometry" />
        </mxCell>
        <mxCell id="KWIYYOEdsQ_5LCBeowkV-9" value="" style="rounded=0;whiteSpace=wrap;html=1;" vertex="1" parent="1">
          <mxGeometry x="505" y="50" width="40" height="10" as="geometry" />
        </mxCell>
        <mxCell id="KWIYYOEdsQ_5LCBeowkV-10" value="" style="shape=image;html=1;verticalAlign=top;verticalLabelPosition=bottom;labelBackgroundColor=#ffffff;imageAspect=0;aspect=fixed;image=https://cdn3.iconfinder.com/data/icons/coffee-related/64/coffee_coffee_machine_coffee_maker_icon-128.png" vertex="1" parent="1">
          <mxGeometry x="-170" y="20" width="128" height="128" as="geometry" />
        </mxCell>
        <mxCell id="KWIYYOEdsQ_5LCBeowkV-12" value="" style="rounded=1;whiteSpace=wrap;html=1;" vertex="1" parent="1">
          <mxGeometry x="345" y="279" width="120" height="61" as="geometry" />
        </mxCell>
        <mxCell id="KWIYYOEdsQ_5LCBeowkV-11" value="" style="shape=image;html=1;verticalAlign=top;verticalLabelPosition=bottom;labelBackgroundColor=#ffffff;imageAspect=0;aspect=fixed;image=https://cdn2.iconfinder.com/data/icons/barista/256/barista-icons_americano-128.png" vertex="1" parent="1">
          <mxGeometry x="375" y="279" width="60" height="61" as="geometry" />
        </mxCell>
        <mxCell id="KWIYYOEdsQ_5LCBeowkV-13" value="" style="shape=image;html=1;verticalAlign=top;verticalLabelPosition=bottom;labelBackgroundColor=#ffffff;imageAspect=0;aspect=fixed;image=https://cdn2.iconfinder.com/data/icons/barista/256/barista-icons_coffee-bean-128.png" vertex="1" parent="1">
          <mxGeometry x="480" y="61" width="28" height="28" as="geometry" />
        </mxCell>
        <mxCell id="KWIYYOEdsQ_5LCBeowkV-16" value="" style="rounded=0;whiteSpace=wrap;html=1;fillColor=#666666;gradientColor=#ffffff;shadow=0;sketch=0;" vertex="1" parent="1">
          <mxGeometry x="285" y="90" width="30" height="10" as="geometry" />
        </mxCell>
        <mxCell id="KWIYYOEdsQ_5LCBeowkV-17" value="" style="rounded=0;whiteSpace=wrap;html=1;fillColor=#666666;gradientColor=#ffffff;shadow=0;sketch=0;" vertex="1" parent="1">
          <mxGeometry x="405" y="90" width="30" height="10" as="geometry" />
        </mxCell>
        <mxCell id="KWIYYOEdsQ_5LCBeowkV-30" style="rounded=0;orthogonalLoop=1;jettySize=auto;html=1;exitX=0.5;exitY=1;exitDx=0;exitDy=0;endArrow=oval;endFill=1;" edge="1" parent="1" source="KWIYYOEdsQ_5LCBeowkV-18" target="KWIYYOEdsQ_5LCBeowkV-29">
          <mxGeometry relative="1" as="geometry" />
        </mxCell>
        <mxCell id="KWIYYOEdsQ_5LCBeowkV-18" value="" style="rounded=0;whiteSpace=wrap;html=1;fillColor=#666666;gradientColor=#ffffff;shadow=0;sketch=0;" vertex="1" parent="1">
          <mxGeometry x="510" y="90" width="30" height="10" as="geometry" />
        </mxCell>
        <mxCell id="KWIYYOEdsQ_5LCBeowkV-20" value="" style="pointerEvents=1;verticalLabelPosition=bottom;shadow=0;dashed=0;align=center;html=1;verticalAlign=top;shape=mxgraph.electrical.inductors.inductor_5;sketch=0;fillColor=#666666;gradientColor=#0000FF;direction=south;strokeColor=#FF3333;" vertex="1" parent="1">
          <mxGeometry x="275.88" y="100.25" width="48.25" height="70.25" as="geometry" />
        </mxCell>
        <mxCell id="KWIYYOEdsQ_5LCBeowkV-21" value="" style="shape=image;html=1;verticalAlign=top;verticalLabelPosition=bottom;labelBackgroundColor=#ffffff;imageAspect=0;aspect=fixed;image=https://cdn4.iconfinder.com/data/icons/medical-and-health-68/512/test_tube-128.png;shadow=0;sketch=0;fillColor=#666666;gradientColor=#0000FF;" vertex="1" parent="1">
          <mxGeometry x="264.75" y="99.75" width="70.5" height="70.5" as="geometry" />
        </mxCell>
        <mxCell id="KWIYYOEdsQ_5LCBeowkV-27" value="" style="pointerEvents=1;verticalLabelPosition=bottom;shadow=0;dashed=0;align=center;html=1;verticalAlign=top;shape=mxgraph.electrical.inductors.inductor_5;sketch=0;fillColor=#666666;gradientColor=#0000FF;direction=south;strokeColor=#FF3333;" vertex="1" parent="1">
          <mxGeometry x="395.88" y="100" width="48.25" height="70.25" as="geometry" />
        </mxCell>
        <mxCell id="KWIYYOEdsQ_5LCBeowkV-28" value="" style="shape=image;html=1;verticalAlign=top;verticalLabelPosition=bottom;labelBackgroundColor=#ffffff;imageAspect=0;aspect=fixed;image=https://cdn4.iconfinder.com/data/icons/medical-and-health-68/512/test_tube-128.png;shadow=0;sketch=0;fillColor=#666666;gradientColor=#0000FF;" vertex="1" parent="1">
          <mxGeometry x="384.75" y="99.5" width="70.5" height="70.5" as="geometry" />
        </mxCell>
        <mxCell id="KWIYYOEdsQ_5LCBeowkV-29" value="" style="shape=image;html=1;verticalAlign=top;verticalLabelPosition=bottom;labelBackgroundColor=#ffffff;imageAspect=0;aspect=fixed;image=https://cdn2.iconfinder.com/data/icons/barista/256/barista-icons_filter-128.png;shadow=0;sketch=0;strokeColor=#FF3333;fillColor=#666666;gradientColor=#0000FF;" vertex="1" parent="1">
          <mxGeometry x="510" y="119.75" width="30" height="30" as="geometry" />
        </mxCell>
        <mxCell id="KWIYYOEdsQ_5LCBeowkV-35" value="" style="endArrow=none;html=1;rounded=0;" edge="1" parent="1">
          <mxGeometry width="50" height="50" relative="1" as="geometry">
            <mxPoint x="480" y="148" as="sourcePoint" />
            <mxPoint x="570" y="148" as="targetPoint" />
          </mxGeometry>
        </mxCell>
        <mxCell id="KWIYYOEdsQ_5LCBeowkV-38" value="" style="endArrow=none;html=1;rounded=0;" edge="1" parent="1">
          <mxGeometry width="50" height="50" relative="1" as="geometry">
            <mxPoint x="359.43" y="170" as="sourcePoint" />
            <mxPoint x="359.43" y="90" as="targetPoint" />
          </mxGeometry>
        </mxCell>
        <mxCell id="KWIYYOEdsQ_5LCBeowkV-39" value="" style="endArrow=none;html=1;rounded=0;" edge="1" parent="1">
          <mxGeometry width="50" height="50" relative="1" as="geometry">
            <mxPoint x="480" y="170" as="sourcePoint" />
            <mxPoint x="480" y="90" as="targetPoint" />
          </mxGeometry>
        </mxCell>
        <mxCell id="KWIYYOEdsQ_5LCBeowkV-37" value="" style="endArrow=none;html=1;rounded=0;" edge="1" parent="1">
          <mxGeometry width="50" height="50" relative="1" as="geometry">
            <mxPoint x="240" y="169.17" as="sourcePoint" />
            <mxPoint x="570" y="169.17" as="targetPoint" />
          </mxGeometry>
        </mxCell>
      </root>
    </mxGraphModel>
  </diagram>
</mxfile>
